<?xml version="1.0" standalone="no"?>
<!DOCTYPE svg PUBLIC "-//W3C//DTD SVG 20010904//EN"
 "http://www.w3.org/TR/2001/REC-SVG-20010904/DTD/svg10.dtd">
<svg version="1.0" xmlns="http://www.w3.org/2000/svg"
 width="264.000000pt" height="191.000000pt" viewBox="0 0 264.000000 191.000000"
 preserveAspectRatio="xMidYMid meet">

<g transform="translate(0.000000,191.000000) scale(0.100000,-0.100000)"
fill="#000000" stroke="none">
<path d="M475 1837 c-148 -50 -278 -182 -305 -313 -6 -30 -25 -84 -42 -121
-36 -81 -68 -201 -68 -260 0 -91 78 -183 155 -183 26 0 26 0 -20 -64 -157
-220 -183 -492 -63 -655 109 -149 398 -223 653 -166 177 40 300 142 342 284 9
33 15 89 14 144 l0 91 103 105 c57 58 116 121 131 139 l27 32 573 0 c315 0
580 3 589 6 20 8 21 33 1 40 -13 5 -15 66 -15 460 l0 454 -665 0 -665 0 0
-455 c0 -250 -3 -455 -7 -455 -5 0 -14 -4 -22 -9 -12 -8 -12 -12 -2 -25 10
-12 32 -16 80 -16 l66 0 -104 -104 -104 -105 -31 77 c-40 98 -73 154 -126 215
-36 40 -39 47 -21 47 11 0 32 16 48 36 22 30 28 49 31 103 2 37 0 83 -5 102
-7 24 -6 41 3 59 21 40 27 123 14 186 -28 139 -130 266 -260 328 -57 27 -77
31 -165 33 -63 2 -115 -2 -140 -10z m1829 -173 c22 -21 20 -38 -9 -84 -14 -22
-25 -41 -25 -44 0 -2 14 -3 31 -2 18 0 34 -5 36 -11 3 -10 -11 -13 -51 -13
-31 0 -56 4 -56 9 0 5 16 32 35 61 36 54 37 75 4 65 -22 -7 -28 20 -6 28 20 9
25 8 41 -9z m-809 -77 c0 -91 -17 -104 -26 -20 -3 32 -7 54 -8 48 -3 -19 -61
-76 -71 -70 -12 7 80 127 94 122 7 -2 11 -35 11 -80z m420 0 c0 -89 -18 -106
-23 -21 l-3 56 -30 -41 c-30 -40 -40 -47 -52 -35 -8 9 86 125 98 121 6 -2 10
-38 10 -80z m-248 33 c3 -11 14 -20 24 -20 11 0 19 -7 19 -15 0 -8 -8 -15 -19
-15 -11 0 -21 -9 -24 -21 -7 -25 -27 -16 -27 11 0 13 -5 17 -20 13 -14 -4 -20
0 -20 11 0 9 8 16 20 16 13 0 20 7 20 20 0 11 5 20 11 20 6 0 13 -9 16 -20z
m463 -9 c0 -10 -98 -23 -112 -15 -4 3 -6 10 -3 15 8 11 115 12 115 0z m-1172
-78 c26 -27 51 -48 57 -48 25 0 16 -173 -11 -200 -9 -8 -16 -25 -18 -38 -1
-13 -6 -29 -11 -37 -6 -8 -10 -18 -10 -22 0 -3 -4 -10 -9 -15 -5 -5 -6 -2 -2
7 4 8 -2 4 -13 -10 -11 -14 -21 -31 -21 -37 0 -7 -6 -13 -14 -13 -7 0 -20 -8
-27 -17 -13 -17 -13 -17 6 -3 19 14 19 14 6 -3 -8 -9 -16 -15 -19 -12 -3 3
-12 -1 -21 -9 -9 -8 -40 -26 -69 -41 -30 -15 -52 -29 -49 -31 6 -6 60 18 68
30 8 11 29 -26 29 -51 -1 -31 -40 -106 -73 -141 -43 -45 -78 -62 -127 -62 -55
0 -106 28 -163 89 -58 62 -79 108 -71 153 6 32 6 32 -9 13 -9 -11 -17 -28 -17
-38 0 -33 41 -104 87 -151 92 -91 193 -113 270 -57 53 39 87 84 109 148 15 43
16 58 7 83 l-11 30 40 -32 c87 -68 180 -217 209 -332 l12 -49 -131 -129 c-73
-71 -132 -132 -131 -136 0 -4 13 -17 29 -30 l28 -22 106 112 c58 61 109 109
112 105 8 -8 -12 -138 -27 -169 -22 -49 -154 -108 -289 -129 -116 -18 -376 -6
-470 21 -91 26 -187 76 -208 108 -23 36 -27 155 -8 253 26 132 92 256 186 349
l76 76 -56 55 c-32 30 -67 74 -80 99 -50 98 -64 216 -32 258 18 23 19 23 55 6
35 -17 37 -17 98 11 l63 28 97 -13 c162 -22 289 0 360 60 19 16 35 29 37 30 2
0 24 -21 50 -47z m1172 32 c0 -11 -13 -15 -54 -15 -30 0 -57 4 -60 9 -9 13 12
19 67 20 35 1 47 -3 47 -14z m-669 -295 c26 -14 24 -38 -6 -82 -14 -20 -25
-39 -25 -42 0 -3 15 -6 33 -8 47 -4 39 -22 -12 -26 -73 -5 -77 2 -37 57 41 56
47 86 16 76 -14 -4 -20 -2 -20 8 0 13 10 22 28 26 2 1 12 -4 23 -9z m413 -6
c21 -21 20 -30 -9 -80 l-25 -43 32 -3 c48 -4 40 -22 -11 -26 -71 -5 -75 1 -36
59 40 59 45 84 15 74 -22 -7 -29 20 -7 28 20 9 25 8 41 -9z m373 -24 c-4 -34
-2 -40 13 -40 10 0 20 9 23 20 3 11 10 20 16 20 6 0 11 -9 11 -20 0 -15 7 -20
25 -20 14 0 25 -4 25 -10 0 -5 -11 -10 -25 -10 -22 0 -25 -4 -25 -35 0 -44
-18 -46 -22 -2 -3 28 -7 33 -38 37 -37 5 -39 12 -24 78 8 40 27 25 21 -18z
m-628 -26 l11 -26 31 26 c17 15 35 23 41 20 7 -4 -3 -18 -23 -35 l-34 -27 23
-25 c26 -28 15 -44 -14 -22 -26 20 -34 18 -34 -6 0 -12 -5 -19 -12 -16 -7 2
-11 13 -9 23 5 31 4 68 -4 92 -10 31 9 28 24 -4z m491 -5 c0 -5 -25 -9 -55 -9
-65 0 -74 17 -12 22 48 4 67 0 67 -13z m0 -38 c0 -11 -36 -21 -77 -21 -23 0
-33 5 -33 15 0 12 13 15 55 15 30 0 55 -4 55 -9z m-590 -161 c0 -5 -39 -51
-87 -102 -49 -50 -133 -139 -188 -197 -291 -306 -350 -366 -360 -369 -6 -1
-19 6 -28 16 -16 18 -9 27 174 203 105 101 254 246 332 321 78 75 145 137 150
138 4 0 7 -4 7 -10z m249 -90 c32 0 50 -4 46 -10 -9 -14 -135 -13 -135 1 0 6
-7 8 -16 5 -43 -17 -67 -19 -62 -5 2 7 24 19 49 25 35 9 46 9 55 -2 7 -9 32
-14 63 -14z"/>
<path d="M458 1013 c7 -3 16 -2 19 1 4 3 -2 6 -13 5 -11 0 -14 -3 -6 -6z"/>
<path d="M511 995 c12 -12 156 -11 186 1 15 6 -13 9 -87 9 -72 0 -106 -3 -99
-10z"/>
</g>
</svg>
